<?xml version="1.0" standalone="no"?>
<!DOCTYPE svg PUBLIC "-//W3C//DTD SVG 20010904//EN"
 "http://www.w3.org/TR/2001/REC-SVG-20010904/DTD/svg10.dtd">
<svg version="1.0" xmlns="http://www.w3.org/2000/svg"
 width="640.000000pt" height="641.000000pt" viewBox="0 0 640.000000 641.000000"
 preserveAspectRatio="xMidYMid meet">

<g transform="translate(0.000000,641.000000) scale(0.100000,-0.100000)"
fill="#000000" stroke="none">
<path d="M2 5705 l3 -709 29 -7 c43 -12 75 15 76 63 0 41 2 42 87 51 35 4 43
2 48 -14 9 -27 28 -24 21 4 -3 13 -8 48 -12 79 -6 52 -4 58 19 82 29 29 77 35
97 11 7 -9 10 -40 8 -86 -2 -42 1 -73 7 -75 6 -3 10 28 10 80 0 64 -4 88 -17
102 -14 16 -17 51 -20 236 -2 160 -6 220 -16 230 -7 7 -61 20 -120 28 -89 13
-107 18 -110 34 -2 10 0 22 5 26 4 4 73 -2 153 -14 l145 -22 5 -379 c3 -209 5
-381 4 -383 -1 -1 -73 -11 -160 -22 -114 -14 -162 -24 -173 -36 -15 -15 -14
-16 4 -11 11 3 91 13 177 23 87 10 163 21 169 24 11 8 14 592 3 731 l-7 76
-151 23 c-83 12 -157 25 -163 27 -14 6 -17 29 -5 37 4 2 111 -13 237 -34 127
-21 280 -46 340 -55 61 -9 142 -23 182 -31 40 -8 83 -14 97 -14 14 0 28 -5 32
-12 5 -8 -4 -9 -32 -5 -21 4 -72 9 -112 13 l-72 7 0 -340 c0 -261 3 -343 13
-350 8 -7 41 -6 97 1 l85 11 3 295 c1 189 -1 297 -8 304 -7 7 -10 -84 -10
-281 l0 -291 -32 -5 c-97 -17 -128 -19 -128 -8 0 6 6 14 13 16 9 4 11 31 9 98
-2 65 3 122 17 191 12 55 21 109 21 122 0 24 28 40 43 25 6 -6 5 -22 -2 -43
-9 -27 -8 -51 5 -113 20 -99 15 -190 -15 -238 -24 -39 -26 -47 -10 -47 5 0 21
25 35 55 23 49 25 65 22 157 -1 64 -7 111 -16 125 -9 15 -11 31 -5 55 14 54 6
78 -26 78 -41 0 -58 -27 -64 -100 -3 -36 -10 -76 -16 -90 -7 -18 -10 26 -10
158 -1 165 1 182 16 182 9 0 54 -5 100 -12 l83 -12 0 -307 c0 -255 -2 -310
-14 -322 -15 -15 -115 -35 -311 -62 -60 -9 -153 -24 -205 -34 -52 -11 -157
-29 -232 -42 l-138 -22 0 -105 0 -104 28 6 27 6 -28 -23 -27 -23 1 -407 1
-407 38 0 c51 0 80 -35 109 -133 23 -80 57 -127 90 -127 29 0 33 26 16 114
-28 143 -13 278 36 322 12 10 33 39 48 64 22 39 26 56 25 125 0 54 -7 98 -21
135 -35 96 -44 130 -39 138 6 10 134 5 203 -7 26 -5 51 -7 54 -5 4 2 69 6 146
9 153 5 196 13 248 44 20 12 42 21 49 21 8 0 41 -29 74 -65 62 -65 136 -197
148 -262 6 -32 6 -33 -29 -33 -67 0 -187 -70 -187 -109 0 -38 19 -40 106 -10
46 16 95 29 108 29 32 0 76 -53 76 -91 0 -34 0 -35 -42 -9 -45 27 -104 25
-164 -5 -27 -14 -55 -23 -61 -20 -30 11 -4 -39 141 -280 54 -89 66 -117 64
-145 -4 -47 -49 -70 -135 -70 -69 0 -105 12 -145 49 -22 20 -28 21 -28 8 0
-24 59 -64 111 -76 54 -12 149 0 186 24 55 36 49 84 -25 210 -22 38 -38 73
-36 77 3 4 18 8 33 8 16 0 40 9 54 20 14 11 27 20 30 20 10 0 46 -125 57 -195
12 -77 7 -127 -16 -149 -24 -24 -78 -34 -248 -45 -181 -12 -244 -28 -313 -80
-65 -50 -89 -89 -103 -170 -21 -125 15 -244 99 -327 58 -58 109 -84 162 -84
41 0 41 0 35 -31 -3 -17 -6 -39 -6 -47 0 -12 -7 -9 -27 10 -93 88 -317 197
-597 290 -254 84 -256 85 -256 117 0 14 4 42 9 61 5 19 17 81 26 137 17 95 20
103 47 114 15 6 28 15 28 20 0 12 -7 11 -45 -2 -38 -14 -78 -6 -106 22 -11 11
-22 19 -24 17 -2 -2 -5 -53 -7 -114 l-3 -111 36 -17 c37 -18 42 -41 16 -73
-11 -15 -61 -18 -52 -3 3 5 1 10 -5 10 -6 0 -8 5 -4 12 11 18 12 48 2 54 -8 5
-10 -1 -12 -51 -1 -16 -6 -29 -13 -28 -6 1 -14 -9 -17 -24 -7 -27 -36 -62 -36
-44 0 6 -4 11 -10 11 -7 0 -10 -510 -10 -1510 0 -1000 3 -1510 10 -1510 6 0
10 6 10 13 0 6 18 32 40 57 68 78 108 114 145 132 17 8 62 16 100 17 63 2 72
5 90 29 92 122 378 473 406 496 51 43 133 77 213 89 58 8 89 7 166 -7 218 -40
384 -164 489 -366 34 -65 81 -194 81 -221 0 -5 -48 -9 -107 -9 -186 0 -396
-12 -379 -22 9 -5 16 -22 16 -38 0 -21 5 -30 16 -30 13 0 14 -3 5 -13 -8 -11
-7 -18 7 -30 10 -9 24 -39 32 -67 7 -27 17 -50 21 -50 4 0 12 -19 16 -42 l9
-43 498 -3 497 -2 -3 147 c-2 82 -6 155 -8 163 -4 13 17 16 140 20 l145 5 -3
55 c-6 115 -33 418 -43 480 -13 88 -49 280 -56 305 -3 12 24 -8 69 -50 43 -40
120 -97 183 -134 59 -36 128 -79 152 -98 24 -18 48 -33 54 -33 5 0 48 25 95
56 239 157 400 324 504 520 l42 79 -7 -90 c-8 -114 -35 -244 -84 -415 -72
-248 -130 -567 -122 -667 1 -9 43 -13 159 -15 l157 -3 3 -28 c2 -15 -3 -49
-12 -75 -15 -47 -24 -101 -30 -179 l-3 -43 462 0 c370 0 465 3 473 13 6 7 18
40 26 73 28 115 37 138 47 123 7 -12 9 -12 10 1 4 46 21 94 37 106 11 8 -13
12 -99 17 -63 4 -138 7 -167 7 l-52 0 6 43 c38 273 247 506 514 573 84 21 208
15 270 -13 97 -44 143 -95 234 -259 47 -84 113 -198 148 -254 l62 -100 59 0
c61 0 110 -18 121 -45 3 -8 17 -20 31 -27 14 -6 25 -16 25 -23 0 -6 11 -22 25
-35 13 -12 22 -26 20 -30 -2 -4 7 -13 20 -20 13 -7 22 -17 19 -21 -3 -5 17
-29 43 -54 26 -26 48 -52 48 -58 0 -9 43 -13 153 -15 l152 -3 0 426 c0 319 -3
424 -12 423 -6 -2 -21 11 -32 29 -12 18 -27 32 -34 33 -7 0 -15 14 -19 30 -3
17 -12 30 -19 30 -8 0 -21 17 -30 38 -14 33 -16 149 -21 981 l-5 945 -22 35
c-12 20 -44 72 -71 116 -27 44 -75 116 -106 160 -52 72 -98 161 -88 169 24 20
150 68 209 80 41 8 75 14 76 13 2 -1 5 -74 9 -162 8 -189 17 -223 58 -216 5 1
6 -2 3 -7 -3 -5 6 -15 19 -22 14 -7 27 -21 31 -32 3 -10 11 -18 19 -18 7 0 15
-6 18 -12 2 -7 7 -10 11 -7 3 3 5 376 4 829 -3 766 -4 822 -20 807 -16 -16
-73 -32 -113 -32 -32 0 -36 70 -33 648 3 465 5 539 18 547 8 5 45 10 83 10
l67 0 0 285 0 285 -224 0 -225 0 -4 -22 -4 -23 -2 23 c-1 22 -2 22 -166 22
-193 0 -174 16 -178 -150 l-2 -105 -120 -11 c-151 -14 -360 -45 -377 -55 -9
-6 -14 -43 -16 -126 -7 -350 -23 -658 -33 -662 -6 -2 -36 -24 -67 -50 l-57
-48 7 446 c3 245 9 517 12 604 l5 157 -129 0 -130 0 0 -303 c0 -167 -3 -595
-7 -950 l-6 -647 -23 0 -23 0 0 204 c0 235 -20 365 -72 468 -34 67 -100 135
-165 169 l-44 24 0 518 0 518 -122 -3 -122 -3 -23 -47 c-19 -39 -29 -48 -49
-48 -25 0 -26 2 -22 50 2 35 -1 50 -9 50 -10 0 -13 -44 -13 -187 -1 -200 -10
-405 -31 -646 l-12 -148 -76 -37 c-44 -21 -100 -60 -136 -94 -57 -53 -64 -57
-98 -51 -35 5 -37 8 -38 42 0 20 -8 68 -18 106 -16 60 -17 73 -5 90 25 35 14
135 -17 155 -5 3 -2 24 6 45 19 53 18 93 -1 146 -13 37 -15 78 -9 264 3 121 8
241 11 268 5 39 3 47 -10 47 -11 0 -16 -9 -16 -29 0 -40 -80 -181 -105 -186
-11 -2 -119 -8 -240 -15 -121 -6 -251 -13 -290 -16 -172 -11 -469 -24 -562
-24 -67 0 -104 -4 -109 -12 -5 -8 71 -10 317 -5 238 5 319 3 304 -5 -11 -6
-36 -26 -56 -45 -36 -34 -37 -34 -160 -43 -68 -5 -196 -10 -284 -11 -133 -3
-164 0 -185 13 -45 29 -67 31 -90 8 l-21 -21 -31 26 c-21 18 -37 24 -52 19
-41 -12 -67 -35 -73 -65 -3 -17 -11 -28 -17 -25 -193 81 -300 118 -360 126
-110 15 -380 29 -389 21 -5 -5 -7 -24 -5 -42 3 -33 5 -34 53 -40 68 -8 85 -2
85 29 0 25 1 25 63 18 34 -4 92 -9 130 -13 l67 -6 0 -48 0 -49 -42 6 c-24 4
-45 10 -48 14 -3 4 -94 7 -202 5 l-197 -2 -3 31 c-3 27 -8 32 -48 43 -74 21
-452 101 -650 139 -102 19 -195 37 -207 39 -41 9 -24 24 30 27 l52 3 3 54 c2
30 0 57 -5 62 -4 4 -54 11 -111 14 l-102 8 2 -708z m5835 483 c-2 -29 -3 -8
-3 47 0 55 1 79 3 53 2 -26 2 -71 0 -100z m100 -45 c-2 -21 -4 -4 -4 37 0 41
2 58 4 38 2 -21 2 -55 0 -75z m-2530 11 c-3 -3 -12 -4 -19 -1 -8 3 -5 6 6 6
11 1 17 -2 13 -5z m641 -366 l-3 -353 -42 -3 c-36 -3 -41 -1 -37 15 6 29 32
387 40 546 6 135 8 147 25 147 19 0 19 -13 17 -352z m1526 326 c10 -25 7 -41
-6 -41 -41 -2 -330 -24 -363 -28 -22 -3 -43 -9 -47 -13 -4 -4 -10 -157 -14
-340 -7 -348 -10 -362 -51 -362 -14 0 -15 16 -9 128 3 70 9 234 12 364 5 155
11 241 18 247 12 9 314 51 432 59 12 1 25 -5 28 -14z m-3850 -100 c61 -25 126
-51 144 -57 23 -7 32 -16 32 -32 l0 -22 -87 17 c-49 10 -127 24 -175 30 l-88
13 3 54 c2 54 2 54 31 49 16 -3 79 -27 140 -52z m1690 1 c19 -15 46 -42 61
-60 34 -46 85 -154 85 -183 0 -22 -1 -22 -30 -7 -16 8 -47 15 -69 15 -51 0
-98 -17 -84 -31 6 -6 19 -6 37 1 73 28 148 -7 130 -62 -5 -16 -12 -18 -53 -12
-50 6 -94 -8 -120 -40 -17 -20 -31 -21 -31 -2 0 7 -7 19 -15 26 -27 22 -17 -5
61 -177 65 -142 74 -169 65 -190 -9 -19 -18 -23 -56 -23 -25 0 -62 7 -82 15
-42 18 -43 18 -43 5 0 -14 49 -37 95 -44 52 -9 92 6 107 40 12 25 7 49 -26
124 -5 12 5 18 41 27 27 6 51 9 55 7 4 -3 14 -39 24 -80 29 -132 -2 -250 -73
-281 -60 -27 -248 -23 -333 6 -36 12 -71 30 -78 39 -12 16 -15 15 -38 -11 -13
-15 -24 -36 -24 -45 0 -14 4 -12 19 7 l18 23 79 -28 c69 -24 94 -28 201 -28
118 -1 123 -2 123 -22 0 -38 -37 -72 -85 -80 -45 -6 -63 -24 -25 -24 15 0 20
-7 20 -27 -1 -62 -28 -231 -44 -268 l-17 -40 -34 41 c-35 42 -95 84 -240 167
-44 26 -99 62 -121 81 -40 34 -41 37 -47 113 -3 43 -11 102 -17 130 l-12 53
-37 -6 c-35 -6 -40 -3 -79 41 -46 52 -57 90 -50 166 7 67 41 104 87 94 18 -4
41 -20 53 -36 28 -37 43 -37 57 2 14 41 14 174 0 200 -8 16 -7 25 7 40 21 23
14 63 -20 118 -34 53 -40 81 -27 129 16 56 85 116 153 132 46 12 53 11 64 -5
9 -11 21 -16 36 -12 13 3 32 2 42 -2 24 -9 133 7 166 24 29 15 68 3 124 -40z
m2166 -20 l0 -54 -41 14 c-92 33 -104 17 -102 -121 2 -100 1 -103 -18 -91 -13
8 -19 23 -19 47 0 66 -65 139 -112 125 -81 -25 -134 -183 -94 -279 12 -28 12
-36 1 -47 -9 -9 -18 -58 -24 -129 -7 -89 -8 -40 -4 215 3 182 7 333 9 336 2 3
83 11 181 18 98 7 185 14 193 16 8 1 18 3 23 4 4 0 7 -24 7 -54z m347 -102
c-2 -32 -3 -8 -3 52 0 61 1 87 3 58 2 -29 2 -78 0 -110z m-3905 130 c22 -25
36 -76 45 -157 5 -38 13 -71 19 -73 10 -3 3 110 -11 166 -7 29 19 71 44 71 25
0 78 -61 84 -97 3 -15 9 -49 12 -75 6 -45 5 -48 -16 -48 -37 0 -69 -38 -69
-81 0 -28 9 -48 35 -79 27 -32 35 -51 35 -81 0 -22 5 -39 11 -39 8 0 10 17 7
49 -4 37 -13 59 -36 86 -40 45 -43 88 -7 111 45 30 118 -6 164 -80 19 -30 141
-389 141 -414 0 -6 -48 -10 -127 -10 -124 0 -225 -15 -288 -44 -14 -6 -28 -9
-31 -6 -3 4 -12 72 -20 153 -16 168 -23 215 -64 408 -17 76 -30 153 -30 171 0
66 66 110 102 69z m716 -20 c-2 -5 -16 -32 -31 -60 l-27 -53 -69 0 c-37 0
-109 -3 -159 -6 -84 -6 -92 -5 -97 12 -3 10 -14 36 -25 57 l-18 37 101 1 c85
1 263 11 315 17 8 1 12 -1 10 -5z m3089 -150 c-2 -32 -3 -8 -3 52 0 61 1 87 3
58 2 -29 2 -78 0 -110z m-3546 127 c34 -19 49 -64 49 -150 l0 -81 -33 25 c-19
15 -39 26 -44 26 -17 0 -28 157 -13 175 15 18 16 18 41 5z m1978 -251 c-7 -4
-25 -65 -40 -136 l-27 -128 -1 207 -1 208 38 23 37 24 3 -95 c2 -67 -1 -98 -9
-103z m1096 118 c33 -57 32 -83 -6 -118 -30 -28 -31 -33 -26 -85 4 -37 1 -66
-9 -89 -8 -19 -14 -47 -14 -62 0 -15 -8 -37 -16 -48 -15 -20 -15 -20 -35 5
-14 17 -19 32 -14 50 10 40 7 65 -15 131 -18 51 -19 69 -11 114 12 64 46 135
65 135 7 0 21 -9 31 -20 10 -11 20 -18 23 -15 3 3 -3 14 -13 25 -16 18 -16 20
-2 20 9 0 28 -20 42 -43z m-3965 18 c0 -8 -4 -15 -10 -15 -16 0 -11 -42 7 -55
17 -13 10 -35 -12 -35 -37 0 -57 58 -35 101 13 22 50 26 50 4z m50 -31 c0 -8
5 -14 10 -14 6 0 10 10 10 22 0 37 18 7 22 -36 2 -25 -2 -41 -10 -44 -7 -2
-12 5 -12 17 0 12 -4 21 -10 21 -5 0 -10 -9 -10 -20 0 -24 -15 -27 -24 -4 -8
21 -8 69 0 77 10 9 24 -2 24 -19z m4877 20 c-3 -3 -12 -4 -19 -1 -8 3 -5 6 6
6 11 1 17 -2 13 -5z m-4795 -34 c1 -16 2 -37 2 -47 1 -9 -5 -18 -11 -20 -9 -3
-13 10 -13 46 0 54 19 72 22 21z m66 -3 l11 -22 0 23 c2 46 21 20 21 -28 0
-37 -4 -50 -14 -50 -8 0 -18 10 -22 22 -6 19 -7 19 -16 5 -16 -30 -28 -18 -28
26 0 24 3 46 6 50 10 10 31 -3 42 -26z m113 -27 c12 -41 5 -66 -11 -40 -7 12
-12 12 -22 2 -27 -27 -38 1 -18 52 14 38 37 32 51 -14z m4216 -132 c-2 -29 -3
-6 -3 52 0 58 1 81 3 53 2 -29 2 -77 0 -105z m-5683 98 c48 -8 90 -17 93 -20
2 -2 6 -91 8 -198 2 -106 2 -179 -1 -163 -16 100 -27 136 -47 150 -29 20 -43
19 -65 -6 -17 -17 -20 -18 -25 -5 -13 32 -47 18 -67 -26 l-19 -43 0 163 c-1
187 -15 170 123 148z m2274 -39 c3 -50 3 -51 -22 -41 -11 4 -16 19 -16 43 0
70 33 68 38 -2z m3319 -19 c-3 -8 -6 -5 -6 6 -1 11 2 17 5 13 3 -3 4 -12 1
-19z m-2312 -52 c41 -17 55 -42 55 -96 0 -60 -33 -90 -100 -90 l-51 0 -30 65
c-30 63 -30 65 -12 89 31 43 82 55 138 32z m1257 -508 c-1 -288 0 -533 3 -545
3 -13 12 -23 20 -23 8 0 15 -4 15 -10 0 -15 -29 0 -40 21 -12 21 -14 1079 -2
1079 4 0 6 -235 4 -522z m1045 415 c-2 -21 -4 -4 -4 37 0 41 2 58 4 38 2 -21
2 -55 0 -75z m-1547 -27 l0 -123 -25 5 c-30 5 -30 1 -5 104 11 46 20 95 20
111 0 15 2 27 5 27 3 0 5 -56 5 -124z m580 -157 c0 -230 -3 -291 -16 -337 -17
-56 -16 -188 2 -386 6 -66 6 -68 -14 -57 -11 6 -22 20 -25 33 -4 12 -7 241 -7
509 0 432 1 489 16 503 8 9 22 16 30 16 12 0 14 -44 14 -281z m-3677 252 l57
-1 0 -291 c0 -272 -1 -290 -17 -285 -10 2 -51 10 -90 17 l-73 12 0 272 c0 149
3 275 7 278 3 4 18 5 32 3 14 -2 52 -5 84 -5z m309 -11 l38 0 0 -160 0 -160
-45 0 c-42 0 -45 2 -35 19 15 29 12 77 -7 138 -14 39 -25 56 -47 67 -16 8 -35
12 -41 9 -15 -5 -55 -119 -55 -156 0 -14 5 -29 10 -32 6 -3 10 -19 10 -36 0
-24 -4 -29 -25 -29 l-25 0 0 176 0 177 92 -7 c50 -3 108 -6 130 -6z m171 -19
c16 -1 17 -18 15 -233 l-2 -233 -6 210 -5 210 -5 -140 -6 -140 -2 143 c-1 89
2 142 8 142 6 0 10 4 10 8 0 5 -6 9 -12 9 -7 0 -23 3 -35 7 -30 10 -31 -12 -1
-23 21 -8 21 -8 -4 -14 l-26 -7 -1 -116 c0 -64 -3 -119 -6 -122 -3 -3 -5 49
-5 116 0 105 2 122 18 131 15 9 15 10 -5 11 -22 0 -23 -2 -26 -167 l-3 -168
-2 193 -2 194 43 -6 c23 -3 50 -5 60 -5z m3563 -58 c-11 -11 -19 6 -11 24 8
17 8 17 12 0 3 -10 2 -21 -1 -24z m-3224 -160 c12 -121 13 -170 5 -175 -11 -7
-86 -16 -167 -20 l-45 -3 -3 183 -2 182 98 0 99 0 15 -167z m3915 35 c-2 -24
-4 -5 -4 42 0 47 2 66 4 43 2 -24 2 -62 0 -85z m-677 17 c7 -8 21 -15 31 -15
11 0 19 -6 19 -14 0 -18 -6 -22 -52 -30 l-38 -7 0 48 c0 26 3 59 7 73 7 24 7
24 14 -7 3 -18 12 -40 19 -48z m-3616 40 c3 -8 1 -15 -4 -15 -6 0 -10 7 -10
15 0 8 2 15 4 15 2 0 6 -7 10 -15z m4193 -82 c-3 -10 -5 -4 -5 12 0 17 2 24 5
18 2 -7 2 -21 0 -30z m-3188 -39 c27 -6 31 -11 31 -38 0 -43 52 -130 94 -155
31 -20 35 -27 41 -83 4 -34 11 -75 16 -91 11 -39 -10 -120 -29 -112 -7 3 -21
5 -31 5 -22 0 -43 92 -42 185 1 54 -3 77 -18 102 -22 35 -75 72 -133 93 -21 8
-40 22 -43 32 -3 10 -7 27 -10 37 -5 17 0 20 32 24 21 2 43 4 49 5 6 1 26 -1
43 -4z m3188 -41 c-3 -10 -5 -2 -5 17 0 19 2 27 5 18 2 -10 2 -26 0 -35z
m-4202 -23 c-3 -5 -12 -10 -18 -10 -7 0 -6 4 3 10 19 12 23 12 15 0z m4292
-112 c-2 -24 -4 -5 -4 42 0 47 2 66 4 43 2 -24 2 -62 0 -85z m-5711 94 c1 -7
0 -8 -3 -2 -2 5 -11 10 -20 10 -13 0 -13 -2 1 -15 20 -20 36 -19 36 3 0 14 2
14 9 3 7 -11 10 -10 14 5 4 13 5 11 4 -6 -2 -23 -6 -25 -57 -27 -30 -1 -47 1
-37 4 9 2 17 9 17 14 0 5 -8 9 -17 10 -15 0 -15 2 2 9 26 12 48 8 51 -8z
m1332 -19 c-2 -10 -12 -19 -23 -22 -16 -3 -17 -1 -7 12 11 13 10 16 -5 20 -11
3 -8 5 10 6 22 1 28 -3 25 -16z m-161 -29 c32 4 43 2 36 -5 -6 -6 -28 -9 -49
-7 -31 2 -39 7 -40 23 -1 17 0 17 3 2 4 -16 11 -18 50 -13z m4450 4 c-3 -7 -5
-2 -5 12 0 14 2 19 5 13 2 -7 2 -19 0 -25z m-4522 12 c3 -6 -1 -7 -9 -4 -18 7
-21 14 -7 14 6 0 13 -4 16 -10z m150 -10 c-3 -5 -12 -10 -18 -10 -7 0 -6 4 3
10 19 12 23 12 15 0z m35 0 c0 -5 -4 -10 -10 -10 -5 0 -10 5 -10 10 0 6 5 10
10 10 6 0 10 -4 10 -10z m94 -21 c-18 -17 -19 -25 -10 -45 6 -13 17 -24 24
-24 6 0 12 -4 12 -10 0 -13 -17 -13 -25 0 -4 6 -14 8 -23 6 -10 -3 -24 -1 -32
4 -12 8 -10 10 10 10 19 0 21 3 12 12 -19 19 -14 32 16 50 36 23 41 22 16 -3z
m-274 -5 c0 -2 -7 -4 -15 -4 -8 0 -15 4 -15 10 0 5 7 7 15 4 8 -4 15 -8 15
-10z m347 -31 c-3 -10 -5 -2 -5 17 0 19 2 27 5 18 2 -10 2 -26 0 -35z m3910
22 c86 -27 130 -60 162 -122 19 -38 48 -169 39 -178 -2 -2 -26 2 -53 10 -26 8
-58 15 -69 15 -35 0 -97 -20 -91 -30 3 -4 21 -4 41 2 53 14 132 1 161 -28 40
-40 24 -58 -27 -29 -14 8 -42 14 -63 15 -40 0 -120 -29 -100 -37 7 -2 21 0 32
6 31 17 106 13 130 -6 13 -11 25 -38 30 -68 11 -54 39 -138 40 -117 1 19 19
14 26 -8 13 -41 -12 -85 -65 -113 -27 -15 -58 -27 -67 -26 -15 0 -14 2 3 9 23
9 41 30 26 30 -5 0 -22 -4 -38 -9 -32 -11 -71 -16 -184 -27 -87 -7 -178 11
-246 51 -48 28 -66 25 -83 -11 -28 -62 -1 -107 92 -149 55 -25 200 -50 239
-40 13 3 44 7 71 9 43 4 47 2 47 -18 0 -34 -28 -66 -57 -66 -25 0 -25 -1 -10
-18 10 -10 17 -29 17 -41 0 -34 -58 -53 -177 -59 -84 -4 -113 -1 -170 16 -38
12 -77 29 -85 39 -19 22 -36 109 -19 99 22 -14 10 30 -19 68 -16 22 -32 54
-36 72 -6 32 -6 32 -38 19 -71 -30 -136 36 -136 138 0 49 4 62 26 84 26 26 54
28 121 8 19 -6 23 -1 37 46 9 30 23 104 31 164 26 174 91 264 219 305 83 26
150 25 243 -5z m-5317 -19 c0 -33 -1 -33 -52 -39 -28 -4 -53 -5 -55 -3 -2 2
-5 16 -6 32 -2 30 -3 30 101 42 7 1 12 -11 12 -32z m1360 14 c0 -5 -4 -10 -10
-10 -5 0 -10 5 -10 10 0 6 5 10 10 10 6 0 10 -4 10 -10z m-95 -9 c-19 -8 -18
-9 5 -14 14 -3 0 -4 -30 -3 -52 3 -51 -1 4 -18 10 -4 17 -9 14 -12 -3 -2 -17
0 -31 5 -17 7 -28 7 -32 1 -4 -6 -16 -10 -28 -10 -16 0 -18 3 -9 12 15 15 15
28 1 28 -5 0 -7 -5 -3 -12 5 -8 -3 -9 -29 -5 -28 4 -35 3 -30 -9 5 -14 13 -16
123 -19 103 -4 108 -6 50 -20 -90 -22 -140 -27 -140 -16 0 6 3 10 8 10 4 -1
27 0 52 1 39 2 35 4 -30 11 -41 5 -82 7 -90 5 -8 -2 1 -4 22 -5 68 -2 25 -51
-46 -51 -7 0 -11 20 -11 50 0 48 1 50 30 56 40 7 163 21 195 22 22 1 23 0 5
-7z m2878 -70 c73 -75 127 -161 127 -204 0 -17 -2 -17 -22 -3 -30 21 -121 21
-142 0 -24 -24 -10 -34 47 -35 84 -2 102 -10 105 -48 3 -29 1 -33 -15 -26 -58
24 -118 16 -163 -21 -16 -14 -35 -22 -41 -18 -8 5 -9 -6 -4 -37 9 -52 19 -73
43 -91 42 -30 54 -84 23 -112 -45 -41 -123 -37 -160 7 -19 24 -34 21 -21 -3 6
-12 31 -30 55 -42 43 -21 45 -21 90 -4 53 21 79 54 73 95 -4 27 -2 30 41 39
25 5 52 11 59 13 19 6 72 -96 72 -137 0 -104 -178 -176 -347 -141 -84 18 -253
94 -253 113 0 18 -10 18 -38 -2 -25 -17 -21 -35 6 -28 9 3 57 -15 105 -40 88
-45 195 -76 261 -76 44 0 47 -20 10 -57 -23 -23 -31 -25 -75 -20 -48 6 -64 -4
-34 -20 12 -7 15 -34 16 -133 1 -69 5 -114 9 -100 7 23 8 22 15 -14 15 -75
-16 -222 -50 -233 -5 -2 -23 21 -38 51 -42 79 -92 133 -153 163 -77 38 -166
112 -176 148 -13 43 0 393 18 500 56 337 162 494 389 576 28 10 59 18 71 19
13 0 49 -29 97 -79z m1447 69 c0 -5 -2 -10 -4 -10 -3 0 -8 5 -11 10 -3 6 -1
10 4 10 6 0 11 -4 11 -10z m-3934 -65 c-33 -34 -65 -57 -82 -60 -16 -2 -123
-6 -239 -9 l-210 -5 145 33 c139 32 232 58 275 77 18 8 50 12 138 17 26 2 25
0 -27 -53z m-241 25 c4 -6 -6 -10 -22 -9 -25 0 -26 1 -8 9 11 5 21 9 22 9 1 1
5 -3 8 -9z m4252 -32 c-3 -8 -6 -5 -6 6 -1 11 2 17 5 13 3 -3 4 -12 1 -19z m2
-63 l-1 -30 -8 30 c-4 17 -11 39 -15 50 l-8 20 16 -20 c9 -11 16 -33 16 -50z
m-3338 -7 c51 -23 60 -32 88 -89 32 -66 51 -144 51 -210 l0 -39 -32 20 c-40
24 -110 26 -132 4 -33 -32 -9 -54 61 -54 58 0 107 -19 117 -46 10 -25 -3 -35
-27 -20 -40 26 -67 28 -121 11 -49 -15 -55 -21 -60 -51 -9 -43 12 -91 62 -146
49 -54 62 -78 62 -117 0 -25 -7 -36 -32 -51 -59 -36 -168 -23 -199 23 -4 5 -9
5 -12 0 -4 -6 5 -21 19 -34 20 -19 38 -24 93 -27 131 -8 185 59 131 161 -19
35 -19 37 -2 37 10 0 34 8 55 19 l37 19 20 -33 c51 -83 64 -184 31 -245 -38
-71 -169 -107 -351 -97 -106 7 -168 23 -235 62 -58 34 -61 41 -33 65 20 17 21
19 4 20 -23 0 -86 -62 -86 -87 0 -16 3 -15 18 5 l18 23 59 -36 c95 -57 150
-70 307 -70 76 0 138 -4 138 -8 0 -25 -35 -79 -82 -128 -49 -50 -57 -65 -82
-150 -27 -90 -31 -97 -105 -175 l-76 -80 -35 47 c-20 27 -68 70 -113 101 -165
111 -225 207 -256 408 -10 69 -22 133 -26 142 -5 12 -2 20 9 24 28 11 17 24
-13 18 -41 -8 -90 24 -121 78 -20 34 -24 56 -23 107 1 71 22 104 80 120 42 12
71 -4 103 -59 23 -39 31 -45 56 -42 47 6 54 18 48 81 -5 41 -2 67 11 96 43
100 41 158 -6 228 -36 53 -36 76 -1 109 74 70 190 98 387 95 127 -2 145 -5
196 -29z m-1399 -8 c96 -20 113 -20 365 -10 146 6 267 10 269 7 2 -2 -7 -28
-21 -58 -14 -30 -25 -59 -25 -65 0 -6 -57 -40 -127 -75 -71 -35 -121 -65 -112
-67 9 -1 63 20 120 48 l104 51 6 -93 c3 -51 10 -114 14 -140 6 -40 5 -48 -8
-48 -24 0 -75 -66 -83 -107 -10 -52 10 -139 41 -179 15 -19 44 -43 65 -54 30
-15 41 -29 49 -57 17 -60 14 -82 -14 -95 -14 -6 -30 -25 -36 -42 -9 -24 -26
-38 -78 -64 -37 -19 -109 -65 -159 -103 l-92 -69 -11 27 c-6 16 -10 35 -10 43
1 8 3 57 6 109 4 84 3 96 -16 123 -18 25 -19 32 -8 39 8 5 17 9 22 9 15 0 6
22 -20 48 -43 42 -74 133 -83 242 -4 52 -15 117 -25 144 -16 47 -16 50 5 97
26 61 29 163 6 207 -36 69 -133 130 -211 132 -16 0 -37 5 -45 10 -23 15 -2 13
112 -10z m4725 -172 c-2 -13 -4 -5 -4 17 -1 22 1 32 4 23 2 -10 2 -28 0 -40z
m-10 -55 c1 -24 0 -25 -6 -8 -7 17 -6 35 2 35 2 0 3 -12 4 -27z m-79 -9 c15
-4 22 -14 22 -31 0 -27 -26 -83 -39 -83 -7 0 -31 86 -31 111 0 10 15 11 48 3z
m-1335 -24 c33 -26 44 -73 24 -104 -18 -27 -87 -48 -130 -39 -31 6 -67 46 -67
75 0 71 113 115 173 68z m1414 -133 c-2 -23 -3 -1 -3 48 0 50 1 68 3 42 2 -26
2 -67 0 -90z m-3197 -47 c11 -6 25 -28 31 -51 11 -35 10 -43 -8 -67 -23 -31
-70 -47 -107 -38 -28 7 -76 70 -76 100 0 11 10 30 22 43 17 18 32 23 70 23 27
0 58 -5 68 -10z m3131 -73 l-24 -22 19 27 c10 14 21 24 23 22 3 -3 -6 -15 -18
-27z m-571 -21 c0 -13 -20 -77 -27 -85 -1 -3 -14 6 -28 19 -27 25 -34 77 -14
97 15 15 69 -10 69 -31z m627 -118 c-2 -29 -3 -8 -3 47 0 55 1 79 3 53 2 -26
2 -71 0 -100z m-1107 61 c95 -71 98 -75 96 -129 l-1 -45 -115 4 c-63 1 -118 6
-123 10 -4 4 -4 55 -1 114 l7 107 31 -2 c20 -2 58 -23 106 -59z m573 32 c7 -7
-10 -101 -19 -101 -2 0 -21 7 -43 16 -39 15 -39 16 -29 52 6 20 12 41 15 46 6
9 63 0 76 -13z m84 -15 c2 -1 -3 -22 -10 -47 -11 -37 -17 -44 -41 -47 l-29 -4
6 47 c9 61 14 68 46 60 14 -4 27 -8 28 -9z m68 -33 c-8 -57 -19 -73 -51 -73
-27 0 -30 16 -10 70 11 31 18 36 65 49 2 1 0 -20 -4 -46z m99 20 c-20 -80 -19
-78 -57 -81 -41 -4 -42 -1 -26 64 11 43 13 44 50 44 38 0 39 -1 33 -27z m26
-23 c-17 -32 -22 -18 -8 21 8 22 13 28 16 17 2 -9 -2 -27 -8 -38z m157 -107
c-2 -21 -4 -4 -4 37 0 41 2 58 4 38 2 -21 2 -55 0 -75z m-808 -101 c41 -33 50
-52 24 -52 -30 0 -169 -65 -212 -99 -22 -18 -55 -54 -72 -81 -18 -27 -35 -47
-40 -45 -13 9 -30 107 -36 214 l-6 104 153 -6 c149 -6 154 -7 189 -35z m898 6
c-3 -7 -5 -2 -5 12 0 14 2 19 5 13 2 -7 2 -19 0 -25z m-82 12 c3 -5 1 -10 -4
-10 -6 0 -11 5 -11 10 0 6 2 10 4 10 3 0 8 -4 11 -10z m-1513 -182 c41 -51 72
-121 93 -204 27 -112 22 -115 -47 -30 -56 68 -64 85 -75 144 -7 37 -15 82 -19
100 -9 44 8 41 48 -10z m-2913 -19 c40 -14 65 -60 57 -104 -9 -48 -50 -79
-119 -88 -42 -5 -45 -3 -99 100 -22 41 -22 42 -3 63 32 36 107 49 164 29z
m2612 -99 c16 0 10 -20 -16 -54 -14 -18 -32 -55 -41 -82 -9 -27 -18 -56 -21
-64 -9 -26 -53 89 -68 178 -25 142 -27 140 61 77 42 -30 80 -55 85 -55z
m-2191 -102 c17 -102 95 -246 169 -312 21 -19 29 -56 12 -56 -16 0 -97 95
-133 156 -53 91 -88 217 -88 319 0 60 14 65 22 8 4 -26 12 -78 18 -115z m2588
121 l2 -34 -15 25 c-18 31 -19 53 -2 48 6 -3 13 -20 15 -39z m-774 9 c3 -13
12 -57 20 -98 8 -41 24 -114 34 -162 11 -49 17 -88 13 -88 -4 0 -31 25 -61 56
-63 65 -174 142 -243 168 -40 15 -46 20 -36 33 18 21 95 58 181 88 89 30 87
30 92 3z m1043 -50 c23 -15 61 -58 86 -95 45 -69 107 -185 107 -202 0 -5 -21
-12 -47 -16 -27 -4 -74 -20 -106 -36 -32 -16 -60 -29 -62 -29 -22 0 -78 381
-60 409 7 13 30 4 82 -31z m-495 -180 c25 -51 51 -106 58 -123 21 -51 22 -10
1 45 -20 53 -20 53 0 78 10 14 26 50 35 79 16 54 16 54 36 36 33 -30 36 -44
28 -138 -13 -139 -60 -496 -71 -531 -5 -17 -25 -45 -44 -64 l-34 -33 -6 29
c-4 16 -11 42 -16 58 -13 41 -11 56 6 56 8 0 22 11 31 25 15 23 15 29 2 70
-14 41 -14 45 1 45 47 0 54 56 14 109 -39 51 -60 67 -125 98 -35 16 -60 35
-64 48 -4 11 -20 55 -36 97 -35 88 -31 111 25 171 l29 32 43 -47 c23 -26 62
-89 87 -140z m-972 -119 c60 -20 162 -75 225 -121 128 -94 218 -206 270 -335
26 -64 72 -240 64 -247 -3 -3 -49 0 -103 6 -74 9 -134 9 -244 0 -244 -19 -365
-53 -401 -113 l-19 -32 -91 0 -91 0 -23 34 c-39 57 -100 72 -324 77 -106 2
-193 8 -193 12 0 13 146 23 234 16 259 -20 264 -20 252 27 -10 42 -148 87
-266 87 -61 0 -155 -25 -193 -52 l-30 -21 7 64 c10 90 40 172 93 258 130 209
332 340 552 359 94 8 225 -1 281 -19z m1295 -276 c-4 -22 -12 -33 -23 -33 -10
0 -35 -9 -56 -21 -21 -11 -40 -18 -42 -16 -2 2 0 17 5 33 4 16 19 96 31 178
l24 150 33 -130 c22 -84 32 -140 28 -161z m-445 228 c101 -38 184 -120 167
-165 -11 -27 -37 -18 -93 33 -57 52 -164 100 -164 73 0 -4 23 -15 51 -25 93
-33 173 -126 167 -194 -4 -50 -27 -50 -67 1 -32 40 -104 99 -133 109 -28 10
-21 -7 10 -25 15 -9 49 -38 75 -64 37 -36 47 -53 45 -73 -4 -36 -64 -66 -102
-51 -36 13 -34 33 4 28 38 -6 50 9 17 21 -13 5 -27 17 -30 25 -7 17 -57 22
-57 6 0 -5 9 -10 21 -10 11 0 17 -4 14 -10 -9 -14 -61 -12 -72 3 -6 6 -16 30
-23 52 -17 54 -82 182 -114 224 -14 19 -24 36 -23 38 2 1 21 10 43 18 55 21
192 14 264 -14z m1105 -156 c193 -40 333 -148 527 -407 38 -51 89 -114 114
-139 29 -31 44 -56 44 -73 0 -29 3 -30 29 -17 21 12 103 -21 83 -33 -17 -11
-52 -81 -52 -106 0 -30 16 -16 23 20 10 47 27 35 27 -17 1 -39 3 -44 11 -30 6
10 9 42 7 70 -3 56 7 65 59 52 24 -6 25 -7 18 -68 -9 -75 -26 -118 -59 -152
-33 -33 -70 -32 -103 3 l-26 27 8 -25 c4 -14 7 -79 6 -146 -4 -182 28 -335 96
-464 34 -64 35 -67 29 -155 -3 -49 -14 -123 -23 -164 l-17 -74 -52 -24 c-62
-28 -171 -53 -236 -53 -41 0 -54 6 -100 43 -29 24 -76 72 -105 108 -50 61
-140 213 -162 272 l-11 27 55 0 c29 0 57 5 60 10 4 6 -16 10 -52 10 -36 0 -67
6 -80 15 l-22 15 24 37 c31 44 34 129 8 174 -24 40 -92 73 -126 60 -14 -5 -28
-14 -31 -20 -5 -7 -15 -7 -33 0 -36 13 -81 -6 -89 -37 -3 -13 -9 -24 -14 -24
-15 0 -127 79 -166 117 -58 57 -78 105 -79 183 l0 65 71 -3 c57 -3 80 1 112
17 23 12 43 21 44 21 2 0 2 -34 0 -74 -4 -71 -3 -76 23 -100 21 -20 39 -26 72
-26 45 0 109 26 133 55 20 24 3 31 -23 8 -53 -49 -127 -59 -166 -21 -22 19
-23 26 -17 92 18 193 18 220 -1 280 -10 33 -25 62 -32 64 -10 3 -12 0 -8 -12
4 -9 9 -22 12 -28 4 -10 -14 -13 -66 -15 -54 -1 -84 -8 -126 -28 -30 -15 -57
-33 -60 -41 -3 -8 -9 -14 -13 -14 -10 0 -30 79 -24 95 7 17 106 69 162 86 35
10 42 16 40 33 -3 19 -10 21 -58 20 -48 -1 -82 -11 -162 -52 -14 -6 -8 201 6
255 35 130 128 243 232 283 112 42 156 46 259 25z m-685 -136 c0 -6 -7 -39
-16 -73 -12 -42 -16 -99 -16 -185 1 -116 -1 -129 -29 -200 -40 -101 -55 -123
-82 -119 -20 3 -22 9 -21 63 0 38 9 78 22 107 11 26 17 50 13 52 -11 7 -42
-60 -60 -133 -18 -73 -43 -98 -67 -67 -27 38 -15 135 30 240 13 28 14 37 4 34
-18 -6 -59 -112 -67 -172 -12 -96 -71 -82 -71 17 0 123 146 333 290 415 60 35
70 38 70 21z m-3042 -47 c7 -49 -62 -92 -148 -92 -27 0 -50 -4 -50 -10 0 -5 7
-10 15 -10 24 0 18 -17 -21 -60 -70 -78 -169 -75 -243 5 -43 47 -59 97 -44
142 l10 28 202 7 c112 4 208 9 215 12 28 12 61 1 64 -22z m2532 -26 c0 -19 25
-37 60 -45 28 -6 33 -13 63 -102 29 -84 32 -98 20 -125 -16 -37 -17 -125 -1
-159 11 -26 48 -42 67 -31 6 4 15 -12 21 -36 6 -24 19 -70 29 -102 17 -54 17
-63 3 -107 -13 -39 -21 -49 -43 -54 -33 -7 -46 -21 -51 -55 -2 -19 -10 -26
-30 -28 -27 -3 -27 -3 -21 47 4 36 1 64 -11 95 -17 45 -74 105 -101 107 -8 1
-21 2 -27 3 -16 2 -15 29 1 163 13 104 4 278 -19 378 -14 59 -12 65 15 65 15
0 25 -6 25 -14z m-3825 -26 c3 -5 1 -10 -4 -10 -6 0 -11 5 -11 10 0 6 2 10 4
10 3 0 8 -4 11 -10z m3525 -280 c119 -15 167 -54 124 -102 -12 -12 -19 -38
-21 -71 -4 -82 -23 -177 -45 -229 -51 -118 -184 -176 -386 -166 -79 4 -107 10
-148 31 -94 48 -156 147 -170 275 -4 31 -12 60 -18 64 -13 9 -112 10 -143 2
-17 -5 -24 -18 -33 -57 -14 -67 -87 -236 -114 -264 -40 -43 -130 -67 -246 -68
-122 0 -178 17 -227 68 -57 59 -113 200 -113 287 0 52 -10 78 -31 83 -27 7
-25 53 4 71 45 28 158 41 357 40 229 0 287 -13 327 -73 l23 -33 104 -2 104 -2
16 34 c20 41 68 64 186 87 152 31 323 40 450 25z m-2367 -54 c78 -45 217 -88
305 -93 64 -5 82 -9 82 -21 0 -25 -176 -10 -275 23 -97 33 -112 40 -147 73
-50 47 -31 56 35 18z m3190 -111 c27 -112 57 -277 57 -307 0 -12 -14 -19 -50
-27 -80 -17 -100 -15 -100 12 0 31 -18 47 -52 47 -23 0 -28 4 -28 23 0 13 -6
32 -14 42 -8 11 -12 24 -10 30 1 5 8 36 14 68 10 50 14 57 35 57 29 0 53 33
85 117 14 35 27 59 31 55 4 -4 18 -56 32 -117z m-3078 -2 c38 -14 104 -28 145
-31 l74 -7 -4 -50 c-3 -27 -5 -186 -4 -352 l1 -303 -33 50 c-57 86 -147 191
-246 285 l-94 91 -11 79 c-10 74 -6 156 12 267 l7 38 41 -22 c23 -11 73 -32
112 -45z m2447 -19 c39 -71 44 -107 17 -112 -22 -4 -93 138 -84 168 10 33 27
20 67 -56z m1125 12 c14 -14 16 -146 2 -162 -38 -46 -149 -69 -213 -44 -33 12
-67 67 -61 98 10 56 53 92 132 112 41 10 129 7 140 -4z m-1980 -115 c33 -177
129 -276 292 -302 84 -13 202 0 283 31 85 32 155 102 178 178 8 27 8 27 9 -7
l1 -34 45 45 c83 85 146 96 205 37 55 -55 61 -150 18 -266 -52 -140 -168 -225
-226 -163 -18 20 -19 19 -20 -42 0 -35 -17 -128 -37 -207 -19 -79 -42 -183
-49 -231 -25 -150 -119 -313 -271 -466 -79 -80 -236 -204 -327 -257 l-46 -27
-104 68 c-57 38 -125 82 -153 97 -27 16 -85 63 -127 106 -68 68 -79 85 -98
145 -23 75 -53 234 -45 242 2 3 27 -16 54 -41 59 -56 126 -90 228 -118 132
-36 342 -18 477 42 68 30 47 41 -25 12 -243 -98 -519 -60 -680 94 -34 32 -70
75 -80 95 -10 20 -39 110 -65 200 -51 181 -49 177 -111 270 -45 68 -83 162
-83 205 0 27 3 28 33 9 82 -52 291 -46 408 12 l39 19 0 -31 c0 -45 34 -95 78
-113 72 -30 207 2 246 59 20 28 21 78 1 104 -13 17 -14 15 -9 -26 8 -58 -17
-92 -83 -114 -60 -21 -110 -20 -153 2 -73 36 -76 105 -13 248 23 51 44 105 47
122 7 29 37 64 66 75 8 3 31 5 49 4 l35 -2 13 -74z m1374 -201 c7 -25 0 -431
-7 -439 -2 -2 -51 -6 -108 -9 l-105 -5 -6 26 c-4 14 -5 114 -3 222 3 181 5
198 22 211 29 21 46 17 46 -10 0 -27 24 -56 45 -56 21 0 43 26 50 60 6 26 11
31 33 28 18 -2 28 -11 33 -28z m979 -886 c0 -8 5 -14 10 -14 6 0 10 -4 10 -10
0 -18 -29 -11 -40 9 -14 28 -12 41 5 35 8 -4 15 -12 15 -20z m-3569 -45 c16
-34 29 -62 27 -64 -11 -9 -142 -31 -167 -27 l-30 4 52 48 c29 26 59 60 66 74
8 14 16 26 18 26 1 0 17 -27 34 -61z m3594 -10 c-4 -6 2 -13 13 -16 13 -3 18
-11 15 -19 -8 -22 -21 -17 -38 16 -14 27 -14 30 0 30 9 0 13 -5 10 -11z m-612
-60 c213 -63 500 -280 622 -472 17 -27 17 -27 -35 8 -76 51 -146 69 -249 62
-142 -9 -282 -68 -394 -167 -117 -103 -227 -316 -227 -442 l0 -38 -64 0 -63 0
-32 70 c-54 122 -72 203 -78 348 -12 281 62 495 209 606 82 61 166 68 311 25z
m664 -15 c-2 -13 0 -21 4 -18 16 9 72 -119 73 -169 1 -26 -2 -46 -7 -44 -10 3
-87 172 -90 197 -1 8 -8 19 -15 23 -11 7 -10 12 4 28 21 23 37 14 31 -17z
m713 0 c0 -21 -50 -328 -55 -332 -2 -2 -12 -1 -23 2 -18 6 -19 11 -9 44 9 34
12 50 16 105 0 10 4 16 9 13 4 -2 6 13 4 35 -3 23 0 39 7 39 6 0 8 7 5 15 -4
9 0 15 7 15 11 0 11 3 -1 10 -13 9 -13 12 3 24 12 10 14 15 6 18 -7 2 -10 11
-6 21 7 19 37 12 37 -9z m-4509 -24 c160 -30 256 -137 309 -344 38 -151 17
-334 -67 -564 -38 -103 -58 -125 -69 -74 -32 151 -108 293 -210 395 -117 117
-233 175 -399 199 -143 20 -285 -17 -377 -100 -21 -19 -38 -29 -38 -21 0 38
111 196 189 267 105 97 295 197 432 226 135 28 156 30 230 16z m4003 -451 c9
-17 13 -35 10 -40 -3 -5 3 -6 12 -2 14 5 16 2 12 -15 -4 -16 -2 -19 10 -15 11
5 14 2 9 -10 -3 -9 -2 -17 3 -17 14 0 36 -50 44 -97 7 -45 6 -46 -18 -37 -8 3
-12 12 -9 21 4 11 2 14 -5 9 -7 -4 -12 -3 -12 2 0 5 -25 51 -55 101 -30 51
-55 94 -55 96 0 5 30 35 35 35 2 0 11 -14 19 -31z m396 -29 c0 -21 -15 -27
-25 -10 -7 12 2 30 16 30 5 0 9 -9 9 -20z m-13 -44 c-3 -6 -11 -10 -18 -8 -11
3 -12 1 -1 -9 17 -18 15 -29 -5 -29 -11 0 -14 -3 -7 -8 20 -13 6 -72 -17 -72
-5 0 -9 9 -9 20 0 11 5 20 11 20 5 0 8 4 4 9 -3 6 0 30 6 55 8 32 15 43 25 39
8 -3 13 -11 11 -17z m-29 -153 c-5 -26 -38 -29 -38 -4 0 15 6 21 21 21 14 0
19 -5 17 -17z"/>
<path d="M3015 5775 c-38 -13 -85 -55 -85 -76 0 -17 18 -9 33 15 22 33 78 50
148 43 33 -3 59 -2 59 3 0 23 -105 34 -155 15z"/>
<path d="M3032 5653 c-68 -33 -92 -106 -57 -173 56 -107 255 -61 255 59 0 99
-105 160 -198 114z m151 -43 c20 -22 27 -41 27 -70 0 -62 -49 -100 -127 -100
-92 0 -143 112 -76 172 53 48 132 47 176 -2z"/>
<path d="M3066 5554 c-8 -21 11 -45 30 -37 20 7 14 47 -7 51 -9 2 -19 -5 -23
-14z"/>
<path d="M2700 5392 c0 -5 11 -13 25 -16 21 -5 24 -11 19 -30 -3 -14 -1 -33 5
-43 10 -17 10 -16 11 4 0 30 20 40 27 14 6 -24 23 -28 23 -6 0 23 -52 74 -82
81 -16 3 -28 2 -28 -4z"/>
<path d="M4206 5725 c4 -27 8 -52 10 -54 8 -9 2 65 -7 84 -6 13 -7 4 -3 -30z"/>
<path d="M5330 5825 c0 -6 4 -15 9 -20 5 -6 11 -21 14 -35 l4 -25 2 26 c0 14
-6 34 -14 45 -8 10 -15 14 -15 9z"/>
<path d="M3433 5564 c-6 -17 14 -36 32 -31 6 2 11 13 13 25 3 17 -2 22 -18 22
-11 0 -23 -7 -27 -16z"/>
<path d="M5218 4888 c-21 -6 -38 -15 -38 -20 0 -6 9 -7 23 -3 12 5 65 10 117
11 114 4 110 3 85 14 -27 12 -141 10 -187 -2z"/>
<path d="M5215 4816 c-28 -12 -65 -46 -51 -46 4 0 24 9 46 20 44 22 139 27
158 8 6 -6 15 -8 19 -4 5 4 -1 14 -11 22 -25 18 -120 18 -161 0z"/>
<path d="M5480 4792 c0 -32 -5 -41 -25 -50 -28 -13 -35 -38 -7 -27 40 17 53
16 86 -4 40 -25 52 -51 36 -81 -17 -31 -94 -31 -149 1 -40 24 -56 15 -23 -12
25 -20 83 -39 120 -39 33 0 83 52 78 82 -3 13 -5 26 -5 30 -1 3 -21 19 -46 35
-40 25 -45 32 -45 66 0 20 -4 37 -10 37 -5 0 -10 -17 -10 -38z"/>
<path d="M4918 4623 c16 -11 22 -25 22 -54 0 -44 17 -53 22 -11 l4 27 16 -35
c14 -30 16 -32 17 -12 2 50 -43 103 -86 101 -16 0 -15 -2 5 -16z"/>
<path d="M1278 5133 c7 -3 16 -2 19 1 4 3 -2 6 -13 5 -11 0 -14 -3 -6 -6z"/>
<path d="M3990 4959 c-26 -10 -40 -26 -40 -45 0 -8 29 -14 78 -17 42 -3 92 -9
110 -13 30 -6 32 -4 32 20 0 52 -106 84 -180 55z"/>
<path d="M3943 4860 c-36 -15 -56 -55 -50 -101 9 -69 65 -109 149 -109 116 1
151 151 48 205 -32 16 -112 19 -147 5z m130 -19 c40 -16 57 -40 57 -82 0 -55
-34 -89 -90 -89 -75 0 -130 45 -130 106 0 60 85 94 163 65z"/>
<path d="M4000 4750 c0 -13 7 -20 20 -20 13 0 20 7 20 20 0 13 -7 20 -20 20
-13 0 -20 -7 -20 -20z"/>
<path d="M2195 4738 c-66 -23 -127 -88 -105 -112 5 -5 23 -2 42 7 42 19 100
35 161 42 55 7 68 26 42 55 -20 22 -88 26 -140 8z"/>
<path d="M2174 4606 c-34 -15 -72 -58 -80 -92 -3 -12 2 -36 10 -53 29 -56 95
-84 167 -71 85 16 138 114 94 176 -33 48 -127 68 -191 40z m131 -20 c18 -8 38
-23 44 -34 61 -115 -127 -203 -213 -101 -30 35 -32 56 -10 88 39 56 112 75
179 47z"/>
<path d="M2224 4505 c-4 -9 -2 -21 4 -27 15 -15 44 -1 40 19 -4 23 -36 29 -44
8z"/>
<path d="M1748 4462 c26 -13 32 -20 27 -37 -4 -11 -9 -33 -11 -50 -4 -26 -1
-23 17 15 l20 45 20 -24 c10 -13 19 -29 19 -37 0 -8 5 -14 10 -14 14 0 13 6
-6 46 -18 38 -70 74 -105 73 -22 0 -21 -2 9 -17z"/>
<path d="M4374 4695 c-7 -18 3 -35 21 -35 21 0 28 19 15 35 -16 19 -29 19 -36
0z"/>
<path d="M2597 4516 c-8 -20 20 -43 35 -28 14 14 3 42 -16 42 -7 0 -16 -6 -19
-14z"/>
<path d="M1247 3946 c-3 -8 0 -19 7 -25 18 -15 48 -3 44 18 -4 21 -44 27 -51
7z"/>
<path d="M3203 3040 c-124 -23 -208 -73 -201 -122 5 -34 39 -34 176 -1 110 26
229 34 331 21 34 -4 50 25 27 51 -42 46 -213 72 -333 51z"/>
<path d="M5212 3082 c-83 -31 -142 -74 -142 -103 0 -34 29 -33 105 5 41 20
108 45 150 56 96 25 100 27 79 51 -25 28 -102 24 -192 -9z"/>
<path d="M5510 2987 c0 -8 -8 -25 -19 -38 -16 -20 -27 -23 -102 -23 -145 -1
-257 -56 -272 -132 -9 -47 26 -109 76 -133 66 -30 101 -34 161 -17 100 29 164
110 152 192 -5 40 -4 43 29 63 19 11 35 25 35 31 0 12 -17 13 -24 1 -3 -5 -20
-14 -38 -20 -29 -10 -30 -10 -15 6 23 26 38 71 27 78 -6 4 -10 0 -10 -8z m-49
-106 c70 -70 1 -193 -124 -221 -80 -18 -162 12 -193 71 -19 38 -18 56 7 90 36
50 129 86 227 88 46 1 57 -3 83 -28z"/>
<path d="M5307 2813 c-13 -12 -7 -41 10 -47 21 -8 48 17 40 38 -6 16 -38 22
-50 9z"/>
<path d="M3415 2834 c-217 -15 -321 -40 -360 -86 -26 -30 -27 -37 -22 -108 9
-149 68 -245 169 -275 76 -22 224 -20 291 5 53 20 103 63 128 110 19 37 38
155 38 242 1 95 -9 108 -83 108 -30 0 -66 2 -82 4 -16 1 -51 2 -79 0z m35 -47
c36 -24 77 -83 65 -95 -3 -4 -70 -8 -148 -10 -78 -2 -182 -9 -231 -16 l-88
-12 6 34 c3 19 13 43 22 53 30 34 134 55 320 68 12 0 36 -9 54 -22z m168 17
c19 -5 22 -13 22 -53 0 -44 -2 -48 -35 -64 -48 -23 -53 -21 -25 8 27 29 20 47
-9 21 -18 -16 -20 -15 -45 28 -15 25 -34 50 -44 55 -13 8 -1 10 48 11 36 0 75
-3 88 -6z m13 -201 c-17 -99 -28 -126 -64 -161 -116 -113 -425 -88 -477 38 -7
17 -11 32 -9 34 2 3 36 -6 74 -20 88 -30 175 -31 247 -4 67 25 123 71 138 113
8 22 23 38 53 53 23 12 44 20 46 18 2 -2 -2 -34 -8 -71z m-101 47 c0 -28 -31
-80 -61 -102 -88 -66 -218 -76 -329 -26 -66 30 -90 52 -90 83 0 30 17 35 127
42 l91 6 4 -29 c2 -23 8 -29 28 -29 17 0 26 6 28 20 7 44 8 45 107 45 59 0 95
-4 95 -10z"/>
<path d="M3701 2809 c-1 -19 25 -33 34 -19 4 6 0 10 -9 10 -8 0 -17 6 -19 13
-4 7 -6 6 -6 -4z"/>
<path d="M2281 2787 c-159 -15 -177 -31 -161 -147 24 -170 65 -245 158 -288
48 -23 70 -27 142 -27 158 1 254 56 284 163 18 67 21 184 5 231 -15 43 -54 61
-161 72 -97 10 -122 9 -267 -4z m49 -38 c-37 -31 -60 -70 -60 -101 0 -31 -16
-38 -24 -10 -3 9 -6 39 -8 67 -2 45 0 50 22 56 14 4 41 7 60 8 l35 0 -25 -20z
m326 -2 c32 -16 44 -40 44 -87 l0 -25 -205 0 c-143 0 -205 3 -205 11 0 21 45
78 80 102 33 22 42 24 145 20 76 -3 120 -10 141 -21z m-174 -154 c2 -22 9 -29
31 -31 24 -3 30 2 40 28 l12 32 64 -6 c35 -4 67 -9 71 -11 3 -2 4 -22 2 -45
-4 -39 -8 -44 -51 -64 -61 -28 -228 -31 -278 -4 -35 19 -69 62 -75 93 -3 17 4
21 52 26 121 13 128 12 132 -18z m-187 -46 c29 -61 103 -97 197 -97 71 0 153
15 176 33 8 7 12 4 12 -8 0 -10 -18 -35 -40 -56 -48 -46 -127 -71 -225 -73
-58 0 -81 4 -128 27 -31 16 -57 32 -57 36 0 4 16 26 35 48 37 43 45 69 20 59
-11 -4 -19 3 -25 20 -25 65 5 75 35 11z"/>
<path d="M2085 2770 c6 -10 4 -12 -9 -7 -12 5 -16 3 -14 -5 6 -18 43 -16 43 1
0 8 -6 16 -14 19 -9 3 -11 0 -6 -8z"/>
<path d="M4803 2624 c-3 -8 1 -23 10 -31 21 -21 47 -9 47 22 0 20 -5 25 -25
25 -14 0 -28 -7 -32 -16z"/>
<path d="M3876 2419 c-21 -18 -43 -52 -56 -86 -25 -66 -20 -97 5 -35 12 29 23
42 34 40 22 -4 26 -54 6 -85 -19 -29 -12 -44 11 -21 24 24 30 100 10 117 -9 7
-16 19 -16 26 0 18 48 55 71 55 11 0 19 5 19 10 0 21 -51 9 -84 -21z"/>
<path d="M2732 2039 c-35 -10 -72 -59 -72 -94 0 -11 9 -37 20 -58 11 -20 20
-45 20 -54 0 -34 40 -84 83 -103 122 -56 267 11 267 122 0 32 5 40 42 65 52
35 66 66 16 35 -20 -12 -39 -22 -44 -22 -5 0 -16 18 -26 40 -28 67 -100 97
-161 65 -24 -12 -32 -12 -62 1 -39 16 -38 16 -83 3z"/>
<path d="M650 6401 c8 -5 125 -43 260 -84 135 -42 321 -101 414 -132 174 -56
197 -62 181 -46 -32 31 -775 271 -837 271 -24 -1 -29 -3 -18 -9z"/>
<path d="M1215 6401 c11 -5 105 -43 209 -85 183 -75 356 -155 386 -181 26 -22
106 -35 208 -35 215 0 219 27 5 31 -130 3 -162 7 -183 22 l-24 17 26 0 c14 0
36 9 49 20 24 20 24 20 5 35 -25 19 -95 19 -122 1 -18 -13 -30 -9 -129 41 -61
31 -157 75 -214 99 -88 38 -114 44 -170 43 -44 0 -59 -3 -46 -8z m659 -187
c28 -11 6 -24 -39 -24 -67 0 -70 27 -3 29 14 1 33 -2 42 -5z"/>
<path d="M1508 6403 c18 -2 45 -2 60 0 15 2 0 4 -33 4 -33 0 -45 -2 -27 -4z"/>
<path d="M2855 6310 c-11 -18 16 -40 49 -39 l31 1 -29 7 c-34 7 -45 27 -19 34
15 4 14 5 -4 6 -12 0 -25 -4 -28 -9z"/>
<path d="M2970 6313 c8 -3 18 -11 22 -17 5 -7 8 -4 8 7 0 11 -7 17 -22 16 -16
0 -18 -2 -8 -6z"/>
<path d="M2655 6280 c-3 -6 1 -7 9 -4 18 7 21 14 7 14 -6 0 -13 -4 -16 -10z"/>
<path d="M2958 6283 c7 -3 16 -2 19 1 4 3 -2 6 -13 5 -11 0 -14 -3 -6 -6z"/>
<path d="M700 6206 c0 -43 1 -45 33 -51 18 -4 49 -5 68 -3 31 3 34 6 37 37 2
18 0 37 -5 41 -4 4 -36 11 -70 14 l-63 7 0 -45z"/>
<path d="M1344 6055 c-10 -8 -14 -15 -8 -15 5 0 14 4 20 9 5 5 20 11 34 14
l25 4 -26 2 c-14 0 -34 -6 -45 -14z"/>
<path d="M1290 6056 c0 -2 7 -7 16 -10 8 -3 12 -2 9 4 -6 10 -25 14 -25 6z"/>
<path d="M1410 6039 c25 -4 61 -7 80 -7 29 1 26 2 -15 8 -69 11 -126 10 -65
-1z"/>
<path d="M1368 6023 c7 -3 16 -2 19 1 4 3 -2 6 -13 5 -11 0 -14 -3 -6 -6z"/>
<path d="M1470 6011 c-24 -7 -24 -8 8 -15 18 -4 36 -5 39 -2 4 3 -1 6 -11 6
-9 0 -14 5 -11 10 3 6 5 10 3 9 -2 -1 -14 -4 -28 -8z"/>
<path d="M495 5811 c-9 -15 7 -781 17 -781 11 0 194 29 231 36 l28 6 -3 356
-3 357 -75 11 c-137 20 -189 24 -195 15z m165 -37 c96 -12 90 6 90 -247 l0
-222 -20 25 c-16 19 -19 34 -15 60 11 64 8 88 -14 115 -11 15 -21 40 -21 54 0
40 -26 71 -60 71 -37 0 -44 -13 -41 -73 2 -35 -2 -54 -15 -68 -13 -15 -16 -30
-11 -69 5 -37 1 -61 -13 -92 l-19 -43 -3 248 c-2 137 -1 251 2 254 3 2 23 2
45 -1 22 -3 65 -9 95 -12z m-102 -581 c18 -15 26 -32 26 -55 1 -23 6 -34 19
-36 26 -5 67 6 67 19 0 6 -4 8 -9 5 -5 -4 -12 0 -15 6 -3 9 -9 7 -20 -6 -9
-11 -16 -15 -16 -8 0 6 9 17 20 25 11 8 17 17 13 20 -3 4 1 7 10 7 10 0 14 -5
11 -15 -4 -8 -1 -15 5 -15 6 0 11 9 11 19 0 11 15 28 35 40 l35 20 0 -62 0
-63 -67 -11 c-38 -7 -89 -15 -115 -19 l-48 -6 1 93 c0 52 3 87 6 79 3 -8 17
-25 31 -37z"/>
<path d="M702 4185 c-60 -17 -83 -30 -110 -66 -50 -65 -34 -88 39 -58 43 18
75 23 159 23 58 1 131 -3 162 -7 51 -8 58 -6 68 12 28 53 -47 96 -180 105 -60
4 -101 2 -138 -9z"/>
<path d="M745 4009 c-75 -18 -145 -86 -145 -141 0 -34 44 -87 88 -105 50 -21
162 -18 214 5 97 43 129 135 67 193 -32 30 -114 60 -158 58 -14 -1 -44 -5 -66
-10z m130 -20 c22 -6 55 -22 73 -35 26 -21 32 -32 32 -63 0 -72 -78 -120 -195
-121 -72 0 -122 19 -152 59 -31 40 -2 105 60 138 62 32 120 39 182 22z"/>
<path d="M781 3920 c-20 -12 -8 -45 17 -48 18 -3 22 1 22 21 0 27 -19 40 -39
27z"/>
<path d="M110 3781 c0 -5 11 -16 25 -25 24 -16 25 -18 10 -39 -17 -24 -21 -87
-5 -87 6 0 10 12 10 26 0 14 5 34 11 45 10 19 12 20 29 4 10 -9 21 -28 25 -42
4 -19 9 -23 17 -15 16 16 -34 95 -76 121 -37 23 -46 25 -46 12z"/>
<path d="M856 3663 c-20 -10 -43 -13 -73 -9 -23 3 -43 2 -43 -3 0 -27 99 -28
131 -2 31 25 22 33 -15 14z"/>
</g>
</svg>
